<svg xmlns="http://www.w3.org/2000/svg" width="221" height="84" viewBox="0 0 221 84">
  <g fill="none">
    <path fill="#2D2D2D" d="M40.4070228 56.2757609L41.6138237 56.2757609C43.0009581 56.2757609 44.0829067 56.532377 44.859702 57.0456167 45.6364972 57.5588564 46.024889 58.287091 46.024889 59.2303424 46.024889 60.2290792 45.6850462 60.9642494 45.0053503 61.4358751 44.3256545 61.9075008 43.2506415 62.1433101 41.780279 62.1433101L30.2948637 62.1433101C29.462583 62.1433101 28.7690262 61.8658874 28.2141725 61.3110336 27.6593187 60.7561799 27.381896 60.0626231 27.381896 59.2303424 27.381896 58.203863 27.7564167 57.4548216 28.5054692 56.9831959 29.2545218 56.5115702 30.4474395 56.2757609 32.0842581 56.2757609L32.9165346 56.2757609 46.3994134 42.4599715 33.1662175 29.6012999 32.583624 29.6012999C30.9745481 29.6012999 29.8579216 29.3862973 29.2337112 28.9562857 28.6095007 28.526274 28.2974001 27.7702971 28.2974001 26.6883323 28.2974001 25.5508821 28.6511141 24.7671629 29.3585526 24.3371512 30.0659912 23.9071396 31.4184269 23.692137 33.4159004 23.692137L41.9467343 23.692137C43.4448394 23.692137 44.5337236 23.9348818 45.2134195 24.4203789 45.8931153 24.9058759 46.2329581 25.6618528 46.2329581 26.6883323 46.2329581 27.6315837 45.8515019 28.3528827 45.088578 28.8522511 44.3256541 29.3516195 43.2228988 29.6012999 41.780279 29.6012999L41.4473684 29.6012999 50.3943405 38.3818167 58.9251744 29.6012999 58.0512841 29.6012999C56.4976936 29.6012999 55.3463893 29.3724262 54.5973367 28.9146718 53.8482841 28.4569175 53.4737635 27.742554 53.4737635 26.7715599 53.4737635 25.6895951 53.8066707 24.9058759 54.4724952 24.4203789 55.1383198 23.9348818 56.2202683 23.692137 57.7183735 23.692137L68.5379677 23.692137C69.397991 23.692137 70.0984833 23.9626241 70.6394658 24.5036065 71.1804482 25.0445889 71.4509353 25.7450813 71.4509353 26.6051046 71.4509353 27.6315841 71.1041569 28.387561 70.4105897 28.873058 69.7170225 29.3585551 68.6073317 29.6012999 67.0814838 29.6012999L65.9162968 29.6012999 53.9731294 42.0438332 68.5379677 56.2757609 68.9541059 56.2757609C70.008328 56.2757609 70.8267251 56.532377 71.4093215 57.0456167 71.9919179 57.5588564 72.2832118 58.287091 72.2832118 59.2303424 72.2832118 60.3400499 71.9503045 61.1029624 71.28448 61.5191027 70.6186555 61.935243 69.2454131 62.1433101 67.1647115 62.1433101L58.6754914 62.1433101C57.205129 62.1433101 56.1231804 61.9075008 55.4296132 61.4358751 54.736046 60.9642494 54.3892676 60.2290792 54.3892676 59.2303424 54.3892676 58.3148337 54.7221749 57.5935347 55.3879994 57.0664236 56.0538239 56.5393125 56.9693188 56.2757609 58.1345117 56.2757609L60.4648859 56.2757609 49.9782023 46.0387603 40.4070228 56.2757609zM162.595299 72.796449L172.582616 72.796449C173.636838 72.796449 174.427493 73.0461294 174.954604 73.5454978 175.481715 74.0448662 175.745267 74.7939075 175.745267 75.7926443 175.745267 76.8746091 175.488651 77.6375216 174.975411 78.0814046 174.462171 78.5252876 173.553612 78.7472257 172.249706 78.7472257L153.898009 78.7472257C152.788302 78.7472257 151.949098 78.4975453 151.380373 77.9981769 150.811648 77.4988085 150.52729 76.7636383 150.52729 75.7926443 150.52729 74.6829367 150.881004 73.9061531 151.588442 73.4622701 152.295881 73.0183871 153.606703 72.796449 155.520949 72.796449L156.311611 72.796449 156.311611 29.6012999 155.520949 29.6012999C153.606703 29.6012999 152.295881 29.3793618 151.588442 28.9354788 150.881004 28.4915958 150.52729 27.7148121 150.52729 26.6051046 150.52729 25.6341106 150.811648 24.9058759 151.380373 24.4203789 151.949098 23.9348818 152.788302 23.692137 153.898009 23.692137L160.223311 23.692137C161.055591 23.692137 161.658986 23.8308483 162.033512 24.1082752 162.408038 24.3857021 162.595299 24.8157073 162.595299 25.3983037L162.595299 29.4348446C164.481801 27.4928565 166.569407 26.0363872 168.858179 25.0653932 171.146951 24.0943991 173.609077 23.6089093 176.244633 23.6089093 181.820913 23.6089093 186.481615 25.4953838 190.226878 29.2683893 193.97214 33.0413949 195.844744 37.7714522 195.844744 43.4587032 195.844744 48.9240127 194.069238 53.4182608 190.518174 56.9415821 186.96711 60.4649035 182.431249 62.2265377 176.910454 62.2265377 173.969729 62.2265377 171.264858 61.7063701 168.795758 60.6660193 166.326659 59.6256685 164.25986 58.1345214 162.595299 56.1925333L162.595299 72.796449zM175.495584 56.1093056C179.351818 56.1093056 182.514437 54.8955813 184.983536 52.4680961 187.452635 50.0406109 188.687166 46.8987986 188.687166 43.042565 188.687166 39.2695594 187.445699 36.1554894 184.962729 33.7002616 182.479758 31.2450337 179.324075 30.0174382 175.495584 30.0174382 171.667093 30.0174382 168.532216 31.2380981 166.09086 33.6794547 163.649503 36.1208112 162.428843 39.2418168 162.428843 43.042565 162.428843 46.8710559 163.642568 50.0059326 166.070053 52.4472892 168.497538 54.8886457 171.63935 56.1093056 175.495584 56.1093056z"/>
    <path fill="#77C09E" d="M23.4780915,5.40252789 L18.9782671,5.40252789 C18.0813555,5.40252789 17.3600096,5.628191 16.8218627,6.07951722 C16.2798991,6.52893104 15.8467099,7.11603761 15.5165701,7.83701213 C15.1864303,8.55798665 14.9612483,9.38605553 14.841024,10.317394 C14.7207996,11.2487324 14.6616416,12.19537 14.6616416,13.1573069 L14.6616416,29.6536628 C14.6616416,31.757302 14.3467684,33.5453953 13.717022,35.0179427 C13.0872756,36.4904901 12.3525714,37.7086884 11.5129095,38.6687129 C10.6732477,39.6306497 9.81831918,40.3516242 8.94812413,40.8335488 C8.0798374,41.3154734 7.3756664,41.6138077 6.83561114,41.7342889 L6.83561114,42.0039372 C7.3756664,42.0651339 8.0798374,42.3080086 8.94812413,42.7268241 C9.81831918,43.1475519 10.6732477,43.8226288 11.5129095,44.7539673 C12.3525714,45.6853057 13.0872756,46.9054164 13.717022,48.4066499 C14.3467684,49.9078833 14.6616416,51.8011585 14.6616416,54.0864756 L14.6616416,70.4929488 C14.6616416,71.3936889 14.7207996,72.3116405 14.841024,73.2410665 C14.9612483,74.172405 15.1864303,75.0138606 15.5165701,75.7654335 C15.8467099,76.5170065 16.2798991,77.1174998 16.8218627,77.5669136 C17.3600096,78.0201523 18.0813555,78.2458154 18.9782671,78.2458154 L23.4780915,78.2458154 L23.4780915,83.6540805 L17.178719,83.6540805 C16.0413588,83.6540805 14.900182,83.397819 13.7628218,82.8872084 C12.6216449,82.3765978 11.5892424,81.6250249 10.6579811,80.634402 C9.72862802,79.6437792 8.96339071,78.4102817 8.36417745,76.9396467 C7.76496419,75.4670993 7.46535756,73.7688887 7.46535756,71.8450151 L7.46535756,55.5303371 C7.46535756,53.9067101 7.25544208,52.4322503 6.83561114,51.1107824 C6.41578019,49.7912269 5.86236667,48.6782105 5.17155393,47.7755581 C4.48264951,46.8748181 3.68878736,46.1844419 2.78805915,45.7044297 C1.88923926,45.2225051 0.957977887,44.9815428 0,44.9815428 L0,38.8523032 C0.957977887,38.8523032 1.88923926,38.5960417 2.78805915,38.0854311 C3.68878736,37.5748205 4.48264951,36.853846 5.17155393,35.9225075 C5.86236667,34.9911691 6.41578019,33.8647659 6.83561114,32.5413857 C7.25544208,31.2199178 7.46535756,29.7779687 7.46535756,28.2155386 L7.46535756,11.8090654 C7.46535756,9.88519173 7.76496419,8.18889359 8.36417745,6.71443377 C8.96339071,5.24188635 9.72862802,4.01030123 10.6579811,3.01967842 C11.5892424,2.02714321 12.6216449,1.2755703 13.7628218,0.764959701 C14.9020903,0.2562615 16.0413588,0 17.178719,0 L23.4780915,0 L23.4780915,5.41017748 L23.4780915,5.40252789 Z"/>
    <path fill="#77C09E" d="M220.478092,5.40252789 L215.978267,5.40252789 C215.081356,5.40252789 214.36001,5.628191 213.821863,6.07951722 C213.279899,6.52893104 212.84671,7.11603761 212.51657,7.83701213 C212.18643,8.55798665 211.961248,9.38605553 211.841024,10.317394 C211.7208,11.2487324 211.661642,12.19537 211.661642,13.1573069 L211.661642,29.6536628 C211.661642,31.757302 211.346768,33.5453953 210.717022,35.0179427 C210.087276,36.4904901 209.352571,37.7086884 208.51291,38.6687129 C207.673248,39.6306497 206.818319,40.3516242 205.948124,40.8335488 C205.079837,41.3154734 204.375666,41.6138077 203.835611,41.7342889 L203.835611,42.0039372 C204.375666,42.0651339 205.079837,42.3080086 205.948124,42.7268241 C206.818319,43.1475519 207.673248,43.8226288 208.51291,44.7539673 C209.352571,45.6853057 210.087276,46.9054164 210.717022,48.4066499 C211.346768,49.9078833 211.661642,51.8011585 211.661642,54.0864756 L211.661642,70.4929488 C211.661642,71.3936889 211.7208,72.3116405 211.841024,73.2410665 C211.961248,74.172405 212.18643,75.0138606 212.51657,75.7654335 C212.84671,76.5170065 213.279899,77.1174998 213.821863,77.5669136 C214.36001,78.0201523 215.081356,78.2458154 215.978267,78.2458154 L220.478092,78.2458154 L220.478092,83.6540805 L214.178719,83.6540805 C213.041359,83.6540805 211.900182,83.397819 210.762822,82.8872084 C209.621645,82.3765978 208.589242,81.6250249 207.657981,80.634402 C206.728628,79.6437792 205.963391,78.4102817 205.364177,76.9396467 C204.764964,75.4670993 204.465358,73.7688887 204.465358,71.8450151 L204.465358,55.5303371 C204.465358,53.9067101 204.255442,52.4322503 203.835611,51.1107824 C203.41578,49.7912269 202.862367,48.6782105 202.171554,47.7755581 C201.48265,46.8748181 200.688787,46.1844419 199.788059,45.7044297 C198.889239,45.2225051 197.957978,44.9815428 197,44.9815428 L197,38.8523032 C197.957978,38.8523032 198.889239,38.5960417 199.788059,38.0854311 C200.688787,37.5748205 201.48265,36.853846 202.171554,35.9225075 C202.862367,34.9911691 203.41578,33.8647659 203.835611,32.5413857 C204.255442,31.2199178 204.465358,29.7779687 204.465358,28.2155386 L204.465358,11.8090654 C204.465358,9.88519173 204.764964,8.18889359 205.364177,6.71443377 C205.963391,5.24188635 206.728628,4.01030123 207.657981,3.01967842 C208.589242,2.02714321 209.621645,1.2755703 210.762822,0.764959701 C211.90209,0.2562615 213.041359,0 214.178719,0 L220.478092,0 L220.478092,5.41017748 L220.478092,5.40252789 Z" transform="matrix(-1 0 0 1 417.478 0)"/>
    <path fill="#2D2D2D" d="M78.2049854 44.7487318C78.4269269 48.7436788 79.7793626 51.8300065 82.2623332 54.0078075 84.7453038 56.1856085 88.1367965 57.2744927 92.4369131 57.2744927 95.6828076 57.2744927 99.2199472 56.4075467 103.048438 54.6736287 106.876929 52.9397107 109.193409 52.0727647 109.997947 52.0727647 110.830227 52.0727647 111.523784 52.3363163 112.078638 52.8634274 112.633492 53.3905385 112.910914 54.0424818 112.910914 54.8192771 112.910914 55.6238151 112.619621 56.3589853 112.037024 57.0248098 111.454428 57.6906343 110.525062 58.3425777 109.248898 58.9806595 106.474629 60.3400512 103.61024 61.3803864 100.655643 62.1016963 97.701047 62.8230061 94.7673018 63.1836557 91.8543196 63.1836557 85.5289867 63.1836557 80.4660222 61.3596013 76.6652739 57.7114379 72.8645257 54.0632744 70.9641801 49.2291836 70.9641801 43.2090203 70.9641801 37.0778863 72.9754948 32.1120196 76.9981845 28.3112714 81.0208742 24.5105232 86.2641636 22.6101776 92.7282099 22.6101776 98.581917 22.6101776 103.436815 24.3856829 107.293048 27.936747 111.149282 31.487811 113.07737 35.7878631 113.07737 40.8370323 113.07737 42.3906229 112.751398 43.430958 112.099445 43.9580691 111.447492 44.4851802 109.678922 44.7487318 106.793682 44.7487318L78.2049854 44.7487318zM78.4130545 39.2973209L105.503654 39.2973209C105.087513 35.995941 103.707335 33.3396185 101.363078 31.3282736 99.0188212 29.3169288 96.1405605 28.3112714 92.7282099 28.3112714 89.0384324 28.3112714 85.931298 29.2822509 83.4067134 31.2242391 80.8821288 33.1662272 79.2175925 35.8572276 78.4130545 39.2973209zM130.456816 13.6632055L123.382466 13.6632055C120.691425 13.6632055 119.006082 13.4482028 118.326386 13.0181912 117.646691 12.5881795 117.306848 11.8044603 117.306848 10.6670101 117.306848 9.66827338 117.591206 8.91923205 118.159931 8.41986367 118.728656 7.92049528 119.553989 7.67081484 120.635954 7.67081484L134.368515 7.67081484C135.117568 7.67081484 135.700156 7.82339733 136.116296 8.1285669 136.532436 8.43373647 136.740503 8.84987054 136.740503 9.37698161L136.740503 56.2757609 149.807244 56.2757609C150.861466 56.2757609 151.631314 56.5046347 152.116811 56.962389 152.602308 57.4201434 152.845053 58.148378 152.845053 59.1471148 152.845053 60.284565 152.609244 61.0682842 152.137618 61.4982958 151.665993 61.9283075 150.77824 62.1433101 149.474334 62.1433101L118.763332 62.1433101C117.681367 62.1433101 116.856034 61.8936296 116.287309 61.3942613 115.718584 60.8948929 115.434226 60.1458515 115.434226 59.1471148 115.434226 58.1761207 115.72552 57.4548216 116.308116 56.9831959 116.890712 56.5115702 117.764594 56.2757609 118.929787 56.2757609L130.456816 56.2757609 130.456816 13.6632055z"/>
  </g>
</svg>
